{"title":"Frozen.2010.DVDRiP.XViD.OPTIONAL_MULTI_SUB-Zen_Bud ","uid":5879561,"size":752744392,"categoryP":"video","categoryS":"movies","magnet":"?xt=urn:btih:f8fcf4aac18914420728070c7b8baadc277f1d9a&amp;dn=Frozen.2010.DVDRiP.XViD.OPTIONAL_MULTI_SUB-Zen_Bud+&amp;tr=udp%3A%2F%2Ftracker.openbittorrent.com%3A80&amp;tr=udp%3A%2F%2Fopen.demonii.com%3A1337&amp;tr=udp%3A%2F%2Ftracker.coppersurfer.tk%3A6969&amp;tr=udp%3A%2F%2Fexodus.desync.com%3A6969","seeders":0,"leechers":0,"uploader":"Zen_Bud","files":-1,"time":1286781236,"description":"\n********* Frozen.2010.DVDRiP.XViD.OPTIONAL_MULTI_SUB-Zen_Bud ***********\n\nFormat                           : AVI\nFile size                        : 706 MiB\nDuration                         : 1h 29mn\nOverall bit rate                 : 1 099 Kbps\n\nVideo\n\nFormat                           : MPEG-4 Visual\nCodec ID/Hint                    : XviD\nDuration                         : 1h 29mn\nBit rate                         : 958 Kbps\nWidth                            : 720 pixels\nHeight                           : 428 pixels\nDisplay aspect ratio             : 2.35:1\nStream size                      : 616 MiB (87%)\nWriting library                  : XviD 1.1.2 (UTC 2006-11-01)\n\nAudio\n\nFormat                           : MPEG Audio\nCodec ID/Hint                    : MP3\nDuration                         : 1h 29mn\nBit rate                         : 128 Kbps\nChannel(s)                       : 2 channels\nSampling rate                    : 48.0 KHz\nStream size                      : 82.2 MiB (12%)\nLanguage                         : English\n\nText #1\nLanguage                         : Swedish\n\nText #2\nLanguage                         : Norwegian\n\nText #3\nLanguage                         : Danish\n\nText #4\nLanguage                         : Finnish\n\nText #5\nLanguage                         : Icelandic\n\n","torrent":{"xt":"urn:btih:f8fcf4aac18914420728070c7b8baadc277f1d9a","amp;dn":"Frozen.2010.DVDRiP.XViD.OPTIONAL_MULTI_SUB-Zen_Bud+","amp;tr":["udp%3A%2F%2Ftracker.openbittorrent.com%3A80","udp%3A%2F%2Fopen.demonii.com%3A1337","udp%3A%2F%2Ftracker.coppersurfer.tk%3A6969","udp%3A%2F%2Fexodus.desync.com%3A6969"],"infoHash":"f8fcf4aac18914420728070c7b8baadc277f1d9a","infoHashBuffer":{"type":"Buffer","data":[248,252,244,170,193,137,20,66,7,40,7,12,123,139,170,220,39,127,29,154]},"announce":[],"urlList":[]}}